# xmcd
#
# Track frame offsets: 
#        150
#        15507
#        29717
#        52577
#        74255
#        88630
#        102920
#        122275
#        147172
#        159797
#        173080
#        188192
#
# Disc length: 2749 seconds
#
# Revision: 0
# Processed by: cddbd v1.5.2PL0 Copyright (c) Steve Scherf et al.
# Submitted via: ExactAudioCopy v0.99pb5
#
DISCID=8c0abb0c
DTITLE=Jim Averitt - Twelve Stories
DYEAR=1900
DGENRE=Country
TTITLE0=Spend My Whole Life with You
TTITLE1=Drivin' the Boss' Car
TTITLE2=Bug of Insecurity
TTITLE3=Ranch Hand Blues
TTITLE4=Falling for You
TTITLE5=April 10
TTITLE6=Redrock River Blues
TTITLE7=Winnemucca
TTITLE8=Medium Kind of Guy
TTITLE9=Tico
TTITLE10=I Never Know How Good You Were Until You Started to Go Bad
TTITLE11=Welcome to Nashville
EXTD=
EXTT0=
EXTT1=
EXTT2=
EXTT3=
EXTT4=
EXTT5=
EXTT6=
EXTT7=
EXTT8=
EXTT9=
EXTT10=
EXTT11=
PLAYORDER=
